<svg width="134" height="26" viewBox="0 0 134 26" fill="none" xmlns="http://www.w3.org/2000/svg">
<path d="M21.0775 0H0V6.34827H21.0775V0Z" fill="#001B2E"/>
<path d="M21.0775 18.0293H0V24.3776H21.0775V18.0293Z" fill="#001B2E"/>
<path d="M8.88791 18.0294H0L12.1888 6.34836H21.0767L8.88791 18.0294Z" fill="#001B2E"/>
<path d="M31.9955 0H24.6309V24.6327H31.9955V0Z" fill="#001B2E"/>
<path d="M56.7437 4.37992C55.833 2.99096 54.5431 1.92185 52.8735 1.17499C51.2015 0.428139 49.224 0.0547104 46.9331 0.0547104H35.1289V6.51014L43.3979 6.43098H46.4109C47.5536 6.43098 48.3996 6.68526 48.9513 7.20022C49.4975 7.71518 49.7741 8.41406 49.7741 9.30245C49.7741 10.1908 49.4967 10.8921 48.9513 11.4047C48.3996 11.9196 47.5536 12.1771 46.4109 12.1771L43.3979 12.1683L43.2963 12.2387L35.1289 17.8257V24.5786H43.3979V18.5534H46.9339C49.2256 18.5534 51.2023 18.1712 52.8743 17.4131C54.5432 16.6551 55.833 15.586 56.7445 14.2082C57.6553 12.8304 58.1111 11.1952 58.1111 9.30325C58.1111 7.41132 57.6545 5.76888 56.7437 4.37992Z" fill="#001B2E"/>
<path d="M43.2936 12.2387V17.8257H35.127L43.2936 12.2387Z" fill="#21B0C0"/>
<path d="M81.8827 4.37993C80.9719 2.99097 79.6821 1.92186 78.0125 1.175C76.3405 0.428147 74.363 0.054718 72.072 0.054718H60.2671V6.51015L68.5361 6.43098H71.5491C72.6918 6.43098 73.5378 6.68527 74.0895 7.20023C74.6357 7.71519 74.9123 8.41407 74.9123 9.30246C74.9123 10.1908 74.6349 10.8921 74.0895 11.4047C73.5378 11.9196 72.6918 12.1771 71.5491 12.1771L68.5361 12.1683L68.4345 12.2387L60.2671 17.8257V24.5786H68.5361V18.5534H72.072C74.3638 18.5534 76.3405 18.1712 78.0125 17.4131C79.6813 16.6551 80.9711 15.586 81.8827 14.2082C82.7935 12.8304 83.2493 11.1952 83.2493 9.30326C83.2493 7.41133 82.7935 5.76889 81.8827 4.37993Z" fill="#001B2E"/>
<path d="M68.4348 12.2387V17.8257H60.2673L68.4348 12.2387Z" fill="#21B0C0"/>
<path d="M93.0688 18.2504V6.23915H104.835V0.0246277H92.0054L84.9675 7.89148V17.1508L92.0901 24.4674H105.288V18.2504H93.0688ZM92.5104 9.10378V15.0387H103.406V9.10378H92.5104Z" fill="#001B2E"/>
<path d="M84.9675 17.0867V17.1517L92.0275 24.4025V17.0867H84.9675ZM92.0062 0.0254974L85.1526 7.68347H92.0275V0.0254974H92.0062Z" fill="#005E65"/>
<path d="M92.0273 0.0256729V7.68445H85.1523L92.0059 0.0256729H92.0273Z" fill="#21B0C0"/>
<path d="M92.0275 17.0871V24.4029L84.9675 17.1529V17.0871H92.0275Z" fill="#21B0C0"/>
<path d="M120.388 6.4533L113.808 0.15625L106.681 6.97769L113.26 13.2747L120.388 6.4533Z" fill="#F18F01"/>
<path d="M132.998 6.97764L125.734 0.0246887L119.154 6.32172L126.419 13.2747L132.998 6.97764Z" fill="#F18F01"/>
<path d="M133.271 18.7848L126.281 12.0943L119.017 19.0472L126.007 25.7377L133.271 18.7848Z" fill="#F18F01"/>
<path d="M120.662 19.3097L113.124 12.0943L106.133 18.7848L113.672 26.0002L120.662 19.3097Z" fill="#F18F01"/>
</svg>
