<svg width="552" height="108" viewBox="0 0 552 108" fill="none" xmlns="http://www.w3.org/2000/svg">
<path d="M87.2897 0H0V26.2906H87.2897V0Z" fill="white"/>
<path d="M87.2897 74.6658H0V100.956H87.2897V74.6658Z" fill="white"/>
<path d="M36.8082 74.6665H0L50.4783 26.2911H87.2865L36.8082 74.6665Z" fill="white"/>
<path d="M132.505 0H102.005V102.013H132.505V0Z" fill="white"/>
<path d="M234.99 18.1388C231.218 12.3866 225.876 7.95903 218.962 4.86602C212.037 1.77301 203.848 0.226501 194.36 0.226501H145.475V26.9609L179.72 26.633H192.198C196.93 26.633 200.434 27.6861 202.719 29.8188C204.98 31.9514 206.126 34.8457 206.126 38.5249C206.126 42.204 204.977 45.1083 202.719 47.231C200.434 49.3637 196.93 50.43 192.198 50.43L179.72 50.3936L179.299 50.685L145.475 73.823V101.789H179.72V76.8365H194.363C203.854 76.8365 212.041 75.2536 218.965 72.1142C225.876 68.9748 231.218 64.5472 234.993 58.8414C238.765 53.1355 240.653 46.3634 240.653 38.5282C240.653 30.693 238.762 23.891 234.99 18.1388Z" fill="white"/>
<path d="M145.797 73.7227L179.194 50.8744V73.7227H145.797Z" fill="white" stroke="black" stroke-width="0.2"/>
<path d="M339.109 18.1389C335.337 12.3867 329.995 7.95909 323.081 4.86608C316.156 1.77307 307.967 0.226562 298.479 0.226562H249.59V26.9609L283.835 26.6331H296.313C301.046 26.6331 304.549 27.6862 306.834 29.8188C309.096 31.9515 310.242 34.8458 310.242 38.5249C310.242 42.2041 309.093 45.1083 306.834 47.2311C304.549 49.3637 301.046 50.4301 296.313 50.4301L283.835 50.3936L283.415 50.6851L249.59 73.823V101.789H283.835V76.8366H298.479C307.97 76.8366 316.156 75.2536 323.081 72.1142C329.992 68.9749 335.334 64.5473 339.109 58.8414C342.881 53.1356 344.768 46.3634 344.768 38.5283C344.768 30.6931 342.881 23.8911 339.109 18.1389Z" fill="white"/>
<path d="M249.913 73.7227L283.314 50.8744V73.7227H249.913Z" fill="white" stroke="black" stroke-width="0.2"/>
<path d="M385.434 75.5819V25.8388H434.162V0.102112H381.03L351.883 32.6817V71.0279L381.38 101.329H436.038V75.5819H385.434ZM383.121 37.7023V62.281H428.242V37.7023H383.121Z" fill="white"/>
<path d="M351.884 70.7603V71.0294L381.122 101.058V70.7603H351.884ZM381.033 0.103516L352.65 31.818H381.122V0.103516H381.033Z" fill="white"/>
<path d="M381.12 0.105957V31.8238H352.648L381.031 0.105957H381.12Z" fill="white" stroke="black" stroke-width="0.2"/>
<path d="M381.121 70.7638V101.061L351.883 71.0363V70.7638H381.121Z" fill="white" stroke="black" stroke-width="0.2"/>
<path d="M498.572 26.7257L471.325 0.647278L441.809 28.8975L469.056 54.9759L498.572 26.7257Z" fill="#F18F01"/>
<path d="M550.793 28.8969L520.708 0.102112L493.461 26.1805L523.546 54.9753L550.793 28.8969Z" fill="#F18F01"/>
<path d="M551.927 77.7942L522.978 50.0864L492.893 78.8811L521.842 106.589L551.927 77.7942Z" fill="#F18F01"/>
<path d="M499.706 79.9681L468.486 50.0864L439.537 77.7942L470.757 107.676L499.706 79.9681Z" fill="#F18F01"/>
</svg>
